<svg width="99" height="108" viewBox="0 0 99 108" fill="none" xmlns="http://www.w3.org/2000/svg">
<path d="M49.5 67.5C56.9558 67.5 63 61.4558 63 54C63 46.5442 56.9558 40.5 49.5 40.5C42.0442 40.5 36 46.5442 36 54C36 61.4558 42.0442 67.5 49.5 67.5Z" fill="black"/>
<path d="M49.5 27C56.9558 27 63 20.9558 63 13.5C63 6.04416 56.9558 0 49.5 0C42.0442 0 36 6.04416 36 13.5C36 20.9558 42.0442 27 49.5 27Z" fill="black"/>
<path d="M85.5 47.25C92.9558 47.25 99 41.2058 99 33.75C99 26.2942 92.9558 20.25 85.5 20.25C78.0442 20.25 72 26.2942 72 33.75C72 41.2058 78.0442 47.25 85.5 47.25Z" fill="black"/>
<path d="M85.5 87.75C92.9558 87.75 99 81.7058 99 74.25C99 66.7942 92.9558 60.75 85.5 60.75C78.0442 60.75 72 66.7942 72 74.25C72 81.7058 78.0442 87.75 85.5 87.75Z" fill="black"/>
<path d="M49.5 108C56.9558 108 63 101.956 63 94.5C63 87.0442 56.9558 81 49.5 81C42.0442 81 36 87.0442 36 94.5C36 101.956 42.0442 108 49.5 108Z" fill="black"/>
<path d="M13.5 87.75C20.9558 87.75 27 81.7058 27 74.25C27 66.7942 20.9558 60.75 13.5 60.75C6.04416 60.75 0 66.7942 0 74.25C0 81.7058 6.04416 87.75 13.5 87.75Z" fill="black"/>
<path d="M13.5 47.25C20.9558 47.25 27 41.2058 27 33.75C27 26.2942 20.9558 20.25 13.5 20.25C6.04416 20.25 0 26.2942 0 33.75C0 41.2058 6.04416 47.25 13.5 47.25Z" fill="black"/>
</svg>
